# xmcd
#
# Track frame offsets:
#	150
#	19417
#	33520
#	44397
#	57595
#	73647
#	96665
#	116300
#	130647
#	141762
#	153351
#	166026
#	178925
#	193649
#
# Disc length: 2796 seconds
#
# Revision: 1
# Processed by: cddbd v1.5.2PL0 Copyright (c) Steve Scherf et al.
# Submitted via: EasyCDDAExtractor 6.5.4.1
#
DISCID=c50aea0e
DTITLE=Linda Gail Lewis - Hungry Hill
DYEAR=1900
DGENRE=
TTITLE0=I Don't Wanna Be Lonely Tonight
TTITLE1=Love So Real
TTITLE2=SlowDown Brother
TTITLE3=Weary Blues Goodbye
TTITLE4=I wonder In Whose Arms (You Are Tonight)
TTITLE5=Hungry Hill
TTITLE6=Love Me The Way I Want To Be loved
TTITLE7=Hey, Hey Memories
TTITLE8=Lonely Heart
TTITLE9=Just A Little Talk With Jesus
TTITLE10=88 Friends
TTITLE11=Big Black Cadillac
TTITLE12=I Forgot More Than You'll Ever Know
TTITLE13=That Much
EXTD=
EXTT0=
EXTT1=
EXTT2=
EXTT3=
EXTT4=
EXTT5=
EXTT6=
EXTT7=
EXTT8=
EXTT9=
EXTT10=
EXTT11=
EXTT12=
EXTT13=
PLAYORDER=
